<svg width="20" height="20" viewBox="0 0 20 20" fill="none" xmlns="http://www.w3.org/2000/svg">
<path d="M5.00033 15H3.33366C2.89163 15 2.46771 14.8244 2.15515 14.5118C1.84259 14.1993 1.66699 13.7754 1.66699 13.3333V9.16667C1.66699 8.72464 1.84259 8.30072 2.15515 7.98816C2.46771 7.6756 2.89163 7.5 3.33366 7.5H16.667C17.109 7.5 17.5329 7.6756 17.8455 7.98816C18.1581 8.30072 18.3337 8.72464 18.3337 9.16667V13.3333C18.3337 13.7754 18.1581 14.1993 17.8455 14.5118C17.5329 14.8244 17.109 15 16.667 15H15.0003" stroke="#E17100" stroke-width="1.5" stroke-linecap="round" stroke-linejoin="round"/>
<path d="M5 7.49984V2.49984C5 2.27882 5.0878 2.06686 5.24408 1.91058C5.40036 1.7543 5.61232 1.6665 5.83333 1.6665H14.1667C14.3877 1.6665 14.5996 1.7543 14.7559 1.91058C14.9122 2.06686 15 2.27882 15 2.49984V7.49984" stroke="#E17100" stroke-width="1.5" stroke-linecap="round" stroke-linejoin="round"/>
<path d="M14.1667 11.6665H5.83333C5.3731 11.6665 5 12.0396 5 12.4998V17.4998C5 17.9601 5.3731 18.3332 5.83333 18.3332H14.1667C14.6269 18.3332 15 17.9601 15 17.4998V12.4998C15 12.0396 14.6269 11.6665 14.1667 11.6665Z" stroke="#E17100" stroke-width="1.5" stroke-linecap="round" stroke-linejoin="round"/>
</svg>
