<svg width="20" height="20" viewBox="0 0 20 20" fill="none" xmlns="http://www.w3.org/2000/svg">
<path d="M10 1.04297C14.9476 1.04297 18.958 5.05343 18.958 10.001C18.958 14.9485 14.9476 18.959 10 18.959C5.05245 18.959 1.04199 14.9485 1.04199 10.001C1.04199 5.05343 5.05245 1.04297 10 1.04297ZM10 2.29297C5.74281 2.29297 2.29199 5.74378 2.29199 10.001C2.29199 14.2582 5.74281 17.709 10 17.709C14.2572 17.709 17.708 14.2582 17.708 10.001C17.708 5.74378 14.2572 2.29297 10 2.29297ZM10 12.501C10.4601 12.501 10.8328 12.8739 10.833 13.334C10.833 13.7942 10.4602 14.168 10 14.168C9.53976 14.168 9.16699 13.7942 9.16699 13.334C9.16717 12.8739 9.53987 12.501 10 12.501ZM10 5.20898C11.208 5.20898 12.1873 6.18851 12.1875 7.39648C12.1875 8.19927 11.7543 8.90045 11.1123 9.28027C10.9487 9.37712 10.8137 9.48317 10.7256 9.58691C10.64 9.6878 10.625 9.7543 10.625 9.79297V10.834C10.625 11.1792 10.3452 11.459 10 11.459C9.65482 11.459 9.375 11.1792 9.375 10.834V9.79297C9.375 9.3714 9.55986 9.02884 9.77246 8.77832C9.98245 8.53095 10.2445 8.34238 10.4766 8.20508C10.754 8.04091 10.9375 7.73942 10.9375 7.39648C10.9373 6.87887 10.5177 6.45898 10 6.45898C9.48234 6.45898 9.06268 6.87887 9.0625 7.39648C9.0625 7.74166 8.78268 8.02148 8.4375 8.02148C8.09232 8.02148 7.8125 7.74166 7.8125 7.39648C7.81268 6.18851 8.79199 5.20898 10 5.20898Z" fill="#637381"/>
</svg>
